<svg id="visual" viewBox="0 0 900 600" width="900" height="600" xmlns="http://www.w3.org/2000/svg" xmlns:xlink="http://www.w3.org/1999/xlink" version="1.1"><rect width="900" height="600" fill="#F5EBDD"></rect><g><g transform="translate(846 538)"><path d="M97.9 -31.4C109.3 3.4 88.9 48.8 53.5 74.9C18 100.9 -32.5 107.6 -65.3 84.9C-98.2 62.2 -113.4 10.2 -99.5 -27.8C-85.7 -65.8 -42.9 -89.9 0.2 -90C43.2 -90 86.4 -66.1 97.9 -31.4Z" stroke="#F5A623" fill="none" stroke-width="20"></path></g><g transform="translate(75 341)"><path d="M62.4 -22.6C70.7 5.2 60.2 36.8 38 53C15.9 69.2 -17.8 70 -39.1 54.4C-60.4 38.8 -69.3 6.7 -60.7 -21.5C-52.1 -49.7 -26.1 -73.9 0.5 -74.1C27.1 -74.3 54.1 -50.3 62.4 -22.6Z" stroke="#F5A623" fill="none" stroke-width="20"></path></g><g transform="translate(431 522)"><path d="M57.7 -19C65.6 5.6 56.5 35.5 36.9 49.3C17.3 63.2 -12.8 61.1 -32.7 46.4C-52.6 31.6 -62.2 4.1 -55.1 -19.4C-47.9 -42.9 -24 -62.5 0.5 -62.7C24.9 -62.8 49.8 -43.5 57.7 -19Z" stroke="#F5A623" fill="none" stroke-width="20"></path></g></g></svg>