<?xml version="1.0" encoding="UTF-8"?> <svg xmlns="http://www.w3.org/2000/svg" width="41" height="40" viewBox="0 0 41 40" fill="none"><path d="M33.9687 5.30724C34.1471 5.51798 34.4626 5.54415 34.6734 5.3657C34.8841 5.18724 34.9103 4.87174 34.7318 4.66101L33.9687 5.30724ZM21.0334 2.03959L20.8242 1.58544L20.8226 1.58616L21.0334 2.03959ZM16.9637 2.0415L17.1744 1.58807L17.1728 1.5873L16.9637 2.0415ZM3.00004 18.5231L3.41094 18.2383L3.41038 18.2375L3.00004 18.5231ZM6.98013 28.2184L6.48763 28.3047L6.48769 28.305L6.98013 28.2184ZM12.5203 39V39.5H12.5208L12.5203 39ZM15.9889 27.5404L15.4932 27.4753L15.4932 27.4756L15.9889 27.5404ZM18.2258 25.5868V25.0868H18.2253L18.2258 25.5868ZM22.0061 27.5396L22.5019 27.4751L22.5018 27.4746L22.0061 27.5396ZM23.2434 37.0555L22.7475 37.12L22.7475 37.12L23.2434 37.0555ZM31.505 28.3061C31.553 28.0341 31.3714 27.7748 31.0994 27.7269C30.8275 27.6789 30.5682 27.8605 30.5202 28.1325L31.505 28.3061ZM36.4147 10.8077C36.4501 11.0816 36.7009 11.2749 36.9747 11.2394C37.2486 11.204 37.4419 10.9533 37.4064 10.6794L36.4147 10.8077ZM31.1902 2.38605L30.9498 2.82446L30.9499 2.82448L31.1902 2.38605ZM18.9965 7.71088L19.0044 7.21094C18.9991 7.21086 18.9938 7.21086 18.9885 7.21094L18.9965 7.71088ZM14.3317 6.61081L14.5627 6.16739C14.3181 6.03991 14.0164 6.1347 13.8886 6.3792C13.7608 6.62369 13.8552 6.9255 14.0995 7.05362L14.3317 6.61081ZM23.6546 6.60187L23.8868 7.04468C24.1312 6.91656 24.2256 6.61475 24.0978 6.37025C23.97 6.12575 23.6683 6.03097 23.4236 6.15844L23.6546 6.60187ZM21.2422 2.49387C25.6383 0.472708 30.8513 1.62589 33.9687 5.30724L34.7318 4.66101C31.3232 0.635775 25.6269 -0.622691 20.8245 1.5853L21.2422 2.49387ZM16.753 2.49494C18.1753 3.15588 19.8227 3.15354 21.2441 2.49302L20.8226 1.58616C19.6676 2.12292 18.3286 2.12441 17.1744 1.58807L16.753 2.49494ZM4.02423 5.30724C7.1415 1.62607 12.3586 0.474522 16.7548 2.49579L17.1726 1.58722C12.3704 -0.620676 6.66987 0.635592 3.2611 4.66101L4.02423 5.30724ZM3.41038 18.2375C0.657205 14.283 0.908368 8.98687 4.02424 5.30724L3.26109 4.66101C-0.147476 8.6863 -0.422675 14.4821 2.5897 18.8088L3.41038 18.2375ZM7.47267 28.1324C6.85239 24.582 5.46668 21.207 3.41111 18.2385L2.58897 18.8078C4.56231 21.6575 5.89229 24.8971 6.48759 28.3045L7.47267 28.1324ZM10.7643 38.5C9.9163 38.5 9.19212 37.8947 9.04433 37.0693L8.05999 37.2456C8.29387 38.5518 9.43622 39.5 10.7643 39.5V38.5ZM14.2493 36.9915C14.137 37.8519 13.3982 38.4991 12.5198 38.5L12.5208 39.5C13.8952 39.4987 15.0629 38.4848 15.2409 37.1209L14.2493 36.9915ZM15.4932 27.4756L14.2493 36.9914L15.2409 37.121L16.4847 27.6052L15.4932 27.4756ZM18.2248 25.0868C16.8442 25.0895 15.6749 26.1083 15.4933 27.4745L16.4846 27.6063C16.5997 26.7404 17.3427 26.0885 18.2268 26.0868L18.2248 25.0868ZM19.7671 25.0868H18.2258V26.0868H19.7671V25.0868ZM22.5017 27.4735C22.3194 26.1071 21.1493 25.0895 19.7681 25.0868L19.7662 26.0868C20.6518 26.0885 21.395 26.7402 21.5105 27.6057L22.5017 27.4735ZM23.7392 36.991L22.5019 27.4751L21.5103 27.6041L22.7475 37.12L23.7392 36.991ZM25.4704 38.5C24.5912 38.5 23.8513 37.8525 23.7392 36.991L22.7475 37.12C22.9252 38.4857 24.0948 39.5 25.4704 39.5V38.5ZM27.2254 38.5H25.4704V39.5H27.2254V38.5ZM28.9445 37.0704C28.7976 37.8959 28.0737 38.5 27.2254 38.5V39.5C28.5526 39.5 29.6961 38.5541 29.9291 37.2457L28.9445 37.0704ZM29.9292 37.2449L31.505 28.3061L30.5202 28.1325L28.9444 37.0713L29.9292 37.2449ZM27.2242 39.5C28.5585 39.5031 29.7001 38.5581 29.9294 37.244L28.9442 37.0721C28.7998 37.9003 28.0804 38.502 27.2265 38.5L27.2242 39.5ZM22.7478 37.122C22.931 38.4877 24.0871 39.4982 25.4697 39.5L25.471 38.5C24.5867 38.4989 23.8553 37.8567 23.7389 36.989L22.7478 37.122ZM19.7671 26.0868C20.6466 26.0868 21.3975 26.7439 21.5103 27.6046L22.5018 27.4746C22.323 26.1103 21.1428 25.0868 19.7671 25.0868V26.0868ZM16.4847 27.6054C16.5976 26.7453 17.3477 26.0876 18.2263 26.0868L18.2253 25.0868C16.8503 25.0881 15.672 26.1128 15.4932 27.4753L16.4847 27.6054ZM12.5213 39.5C13.9024 39.4973 15.0589 38.4875 15.2407 37.1222L14.2494 36.9902C14.1342 37.8561 13.4032 38.4983 12.5194 38.5L12.5213 39.5ZM8.05971 37.244C8.29027 38.5554 9.4317 39.5035 10.7656 39.5L10.7629 38.5C9.91113 38.5023 9.19016 37.8988 9.04461 37.0709L8.05971 37.244ZM6.48769 28.305L8.05972 37.2441L9.0446 37.0709L7.47257 28.1318L6.48769 28.305ZM2.58914 18.808C4.56239 21.6541 5.8912 24.8991 6.48763 28.3047L7.47263 28.1322C6.85133 24.5845 5.4671 21.2039 3.41094 18.2383L2.58914 18.808ZM3.26116 4.66093C-0.152977 8.6911 -0.429171 14.478 2.58986 18.8091L3.41022 18.2372C0.650992 14.2788 0.902728 8.99198 4.02417 5.30732L3.26116 4.66093ZM17.1728 1.5873C12.367 -0.624539 6.67346 0.632935 3.26116 4.66093L4.02417 5.30732C7.14529 1.62304 12.3555 0.470977 16.7547 2.49571L17.1728 1.5873ZM20.82 1.58737C19.6681 2.13074 18.3281 2.13218 17.177 1.58928L16.7504 2.49373C18.1725 3.16444 19.8255 3.16217 21.2467 2.49181L20.82 1.58737ZM31.4307 1.94764C28.1546 0.151152 24.218 0.0224242 20.8242 1.58544L21.2425 2.49374C24.3503 1.06248 27.9532 1.18121 30.9498 2.82446L31.4307 1.94764ZM37.4064 10.6794C36.9288 6.98773 34.7082 3.74468 31.4306 1.94763L30.9499 2.82448C33.949 4.46885 35.9782 7.4347 36.4147 10.8077L37.4064 10.6794ZM14.0995 7.05362C15.5992 7.84003 17.299 8.24028 19.0051 8.2108L18.9878 7.21095C17.4475 7.23756 15.9136 6.87574 14.5639 6.168L14.0995 7.05362ZM18.9885 7.21094C17.445 7.23541 15.9197 6.87437 14.5627 6.16739L14.1007 7.05423C15.6056 7.83832 17.2953 8.23791 19.0044 8.21082L18.9885 7.21094ZM23.4236 6.15844C22.0647 6.86644 20.5457 7.23538 19.0044 7.21094L18.9885 8.21082C20.6998 8.23795 22.3827 7.82836 23.8857 7.04529L23.4236 6.15844ZM18.9878 8.2108C20.6961 8.24031 22.3891 7.83007 23.8868 7.04468L23.4224 6.15905C22.0708 6.86781 20.5432 7.23752 19.0051 7.21095L18.9878 8.2108ZM12.5203 38.5H10.7643V39.5H12.5203V38.5Z" fill="#0F5E67"></path><path d="M23.5 17.5C28.1944 17.5 32 13.9183 32 9.5C32 13.9183 35.8056 17.5 40.5 17.5C35.8056 17.5 32 21.0817 32 25.5C32 21.0817 28.1944 17.5 23.5 17.5Z" fill="white"></path><path d="M32.5 9.5C32.5 9.22386 32.2761 9 32 9C31.7239 9 31.5 9.22386 31.5 9.5H32.5ZM23.5 17C23.2239 17 23 17.2239 23 17.5C23 17.7761 23.2239 18 23.5 18V17ZM40.5 18C40.7761 18 41 17.7761 41 17.5C41 17.2239 40.7761 17 40.5 17V18ZM31.5 25.5C31.5 25.7761 31.7239 26 32 26C32.2761 26 32.5 25.7761 32.5 25.5H31.5ZM31.5 9.5C31.5 13.614 27.9473 17 23.5 17V18C28.4416 18 32.5 14.2225 32.5 9.5H31.5ZM31.5 9.5C31.5 14.2225 35.5584 18 40.5 18V17C36.0527 17 32.5 13.614 32.5 9.5H31.5ZM32.5 25.5C32.5 20.7775 28.4416 17 23.5 17V18C27.9473 18 31.5 21.386 31.5 25.5H32.5ZM32.5 25.5C32.5 21.386 36.0527 18 40.5 18V17C35.5584 17 31.5 20.7775 31.5 25.5H32.5Z" fill="#0F5E67"></path></svg> 