<?xml version="1.0" encoding="UTF-8"?> <svg xmlns="http://www.w3.org/2000/svg" width="55" height="30" viewBox="0 0 55 30" fill="none"><path d="M16.7486 1.09302C17.0247 1.09302 17.2486 0.86916 17.2486 0.593018C17.2486 0.316875 17.0247 0.0930176 16.7486 0.0930176V1.09302ZM2.05565 0.593018V0.0930176C1.77951 0.0930176 1.55565 0.316875 1.55565 0.593018L2.05565 0.593018ZM2.05565 10.7494H1.55565C1.55565 10.9419 1.66614 11.1173 1.83976 11.2004C2.01337 11.2835 2.21928 11.2596 2.36921 11.1389L2.05565 10.7494ZM1.36377 25.7895C1.17433 25.5886 0.85788 25.5793 0.656972 25.7688C0.456065 25.9582 0.446776 26.2747 0.636225 26.4756L1.36377 25.7895ZM16.7486 0.0930176H2.05565V1.09302H16.7486V0.0930176ZM1.55565 0.593018L1.55565 10.7494H2.55565L2.55565 0.593018L1.55565 0.593018ZM18.5087 18.9291C18.5087 24.4417 14.0596 28.9069 8.57604 28.9069V29.9069C14.616 29.9069 19.5087 24.9899 19.5087 18.9291H18.5087ZM8.57604 8.95134C14.0596 8.95134 18.5087 13.4165 18.5087 18.9291H19.5087C19.5087 12.8683 14.616 7.95134 8.57604 7.95134V8.95134ZM8.57604 28.9069C5.73618 28.9069 3.17495 27.7103 1.36377 25.7895L0.636225 26.4756C2.62797 28.5878 5.4488 29.9069 8.57604 29.9069V28.9069ZM2.36921 11.1389C4.06981 9.76973 6.2272 8.95134 8.57604 8.95134V7.95134C5.99052 7.95134 3.61362 8.85319 1.74209 10.36L2.36921 11.1389Z" fill="#0F5E67"></path><circle cx="32.1645" cy="14.6492" r="9.45455" stroke="#0F5E67" stroke-linecap="round" stroke-linejoin="round"></circle><path d="M49.7727 9.6969C49.7727 9.42076 49.5488 9.1969 49.2727 9.1969C48.9965 9.1969 48.7727 9.42076 48.7727 9.6969H49.7727ZM48.7727 19.1514C48.7727 19.4276 48.9965 19.6514 49.2727 19.6514C49.5488 19.6514 49.7727 19.4276 49.7727 19.1514H48.7727ZM44.5454 13.9242C44.2693 13.9242 44.0454 14.148 44.0454 14.4242C44.0454 14.7003 44.2693 14.9242 44.5454 14.9242L44.5454 13.9242ZM54 14.9242C54.2761 14.9242 54.5 14.7003 54.5 14.4242C54.5 14.148 54.2761 13.9242 54 13.9242V14.9242ZM48.7727 9.6969V19.1514H49.7727V9.6969H48.7727ZM44.5454 14.9242L54 14.9242V13.9242L44.5454 13.9242L44.5454 14.9242Z" fill="#0F5E67"></path></svg> 