<?xml version="1.0" encoding="UTF-8"?> <svg xmlns="http://www.w3.org/2000/svg" width="44" height="48" viewBox="0 0 44 48" fill="none"><path d="M17.5083 16.4446L17.704 16.7935L17.5083 16.4446ZM26.4913 31.5552L26.6869 31.9041L26.4913 31.5552ZM26.4913 16.4446L26.6869 16.0957L26.4913 16.4446ZM42.5093 35.4999L42.8532 35.7043L42.5093 35.4999ZM17.5083 31.5552L17.704 31.2063L17.5083 31.5552ZM1.4903 12.4999L1.83413 12.7043L1.4903 12.4999ZM17.704 16.7935C23.3367 13.6351 28.9218 11.6256 33.3886 10.9209C35.6235 10.5682 37.5574 10.5456 39.0692 10.8546C40.5828 11.164 41.6242 11.7938 42.1655 12.7043L42.8532 12.2955C42.1541 11.1196 40.8662 10.4054 39.2294 10.0708C37.5909 9.73592 35.5533 9.76941 33.2639 10.1306C28.6822 10.8535 23.007 12.9028 17.3127 16.0957L17.704 16.7935ZM42.1655 12.7043C42.7052 13.6121 42.7455 14.7958 42.2668 16.2168C41.788 17.6382 40.8032 19.2507 39.372 20.9532C36.5119 24.3557 31.9287 28.0478 26.2957 31.2063L26.6869 31.9041C32.381 28.7114 37.0471 24.9622 39.9844 21.468C41.4519 19.7222 42.5028 18.0224 43.025 16.4722C43.5473 14.9215 43.5538 13.4741 42.8532 12.2955L42.1655 12.7043ZM26.2957 31.2063C20.6629 34.3647 15.0778 36.3742 10.611 37.0789C8.37611 37.4316 6.44226 37.4542 4.93043 37.1451C3.41682 36.8358 2.37539 36.206 1.83413 35.2955L1.14647 35.7043C1.84549 36.8802 3.13345 37.5944 4.77022 37.9289C6.40877 38.2639 8.44631 38.2304 10.7357 37.8692C15.3174 37.1462 20.9926 35.097 26.6869 31.9041L26.2957 31.2063ZM1.83413 35.2955C1.29448 34.3877 1.25417 33.204 1.73282 31.783C2.21162 30.3615 3.19647 28.7491 4.62763 27.0466C7.48777 23.6441 12.0709 19.952 17.704 16.7935L17.3127 16.0957C11.6186 19.2884 6.95249 23.0376 4.01525 26.5318C2.54771 28.2776 1.49686 29.9774 0.974679 31.5276C0.452363 33.0783 0.445833 34.5257 1.14647 35.7043L1.83413 35.2955ZM26.2957 16.7935C31.9287 19.952 36.5119 23.6441 39.372 27.0466C40.8032 28.7491 41.788 30.3615 42.2668 31.783C42.7455 33.204 42.7052 34.3877 42.1655 35.2955L42.8532 35.7043C43.5538 34.5257 43.5473 33.0783 43.025 31.5276C42.5028 29.9774 41.4519 28.2776 39.9844 26.5318C37.0471 23.0376 32.381 19.2884 26.6869 16.0957L26.2957 16.7935ZM42.1655 35.2955C41.6242 36.206 40.5828 36.8358 39.0692 37.1451C37.5574 37.4542 35.6235 37.4316 33.3886 37.0789C28.9218 36.3741 23.3367 34.3647 17.704 31.2063L17.3127 31.9041C23.007 35.097 28.6822 37.1462 33.2639 37.8691C35.5533 38.2304 37.5909 38.2639 39.2294 37.9289C40.8662 37.5944 42.1541 36.8802 42.8532 35.7043L42.1655 35.2955ZM17.704 31.2063C12.0709 28.0478 7.48778 24.3557 4.62763 20.9532C3.19647 19.2507 2.21162 17.6382 1.73282 16.2168C1.25417 14.7958 1.29448 13.6121 1.83413 12.7043L1.14647 12.2955C0.445833 13.4741 0.452363 14.9215 0.974679 16.4722C1.49686 18.0224 2.54771 19.7222 4.01525 21.468C6.9525 24.9622 11.6186 28.7114 17.3127 31.9041L17.704 31.2063ZM1.83413 12.7043C2.37539 11.7938 3.41682 11.164 4.93043 10.8546C6.44226 10.5456 8.37611 10.5682 10.611 10.9209C15.0778 11.6256 20.6629 13.6351 26.2957 16.7935L26.6869 16.0957C20.9926 12.9028 15.3174 10.8535 10.7357 10.1306C8.44631 9.76941 6.40877 9.73592 4.77022 10.0708C3.13345 10.4054 1.84549 11.1196 1.14647 12.2955L1.83413 12.7043ZM21.9997 1.4C23.0909 1.4 24.1735 1.96464 25.2024 3.07882C26.2316 4.19342 27.1768 5.82825 27.979 7.88206C29.5823 11.9872 30.5826 17.6856 30.5826 24H31.3826C31.3826 17.6118 30.372 11.8103 28.7242 7.59102C27.9007 5.48265 26.9103 3.74922 25.7901 2.53609C24.6695 1.32254 23.389 0.6 21.9997 0.6V1.4ZM30.5826 24C30.5826 30.3144 29.5823 36.0128 27.979 40.1179C27.1768 42.1717 26.2316 43.8066 25.2024 44.9212C24.1735 46.0354 23.0909 46.6 21.9997 46.6V47.4C23.389 47.4 24.6695 46.6775 25.7901 45.4639C26.9103 44.2508 27.9007 42.5173 28.7242 40.409C30.372 36.1897 31.3826 30.3882 31.3826 24H30.5826ZM21.9997 46.6C20.9084 46.6 19.8258 46.0354 18.797 44.9212C17.7677 43.8066 16.8225 42.1717 16.0203 40.1179C14.417 36.0128 13.4167 30.3144 13.4167 24H12.6167C12.6167 30.3882 13.6273 36.1897 15.2751 40.409C16.0986 42.5173 17.089 44.2508 18.2092 45.4639C19.3298 46.6775 20.6103 47.4 21.9997 47.4V46.6ZM13.4167 24C13.4167 17.6856 14.417 11.9872 16.0203 7.88206C16.8225 5.82825 17.7677 4.19342 18.797 3.07882C19.8258 1.96464 20.9084 1.4 21.9997 1.4V0.6C20.6103 0.6 19.3298 1.32254 18.2092 2.53609C17.089 3.74922 16.0986 5.48265 15.2751 7.59102C13.6273 11.8103 12.6167 17.6118 12.6167 24H13.4167Z" fill="#0F5E67"></path><path d="M23.6011 23.9996C23.6011 23.2684 23.0083 22.6755 22.277 22.6755C21.5457 22.6755 20.9529 23.2684 20.9529 23.9996C20.9529 24.7309 21.5457 25.3238 22.277 25.3238C23.0083 25.3238 23.6011 24.7309 23.6011 23.9996Z" fill="#0F5E67"></path></svg> 